<svg width="85" height="85" viewBox="0 0 85 85" fill="none" xmlns="http://www.w3.org/2000/svg">
<path fill-rule="evenodd" clip-rule="evenodd" d="M42.3413 0C18.9568 0 0 18.9568 0 42.3413C0 65.7257 18.9568 84.6826 42.3413 84.6826C65.7257 84.6826 84.6826 65.7257 84.6826 42.3413C84.6826 18.9568 65.7257 0 42.3413 0ZM20.5394 26.586C21.3795 23.4677 25.234 19.3772 28.1568 18.5028C29.2834 18.1659 36.1117 17.9448 43.3311 18.0121C56.4371 18.1335 56.4614 18.136 58.98 19.8045C60.3676 20.7231 62.1681 22.5447 62.9808 23.8526C64.4226 26.1713 64.4587 26.5761 64.4587 40.2881V54.3464L62.7877 56.8712C61.8691 58.2594 60.0475 60.0611 58.7396 60.8738C56.4216 62.315 56.0136 62.3517 42.3496 62.3517C28.6855 62.3517 28.2776 62.315 25.9595 60.8738C24.6517 60.0611 22.83 58.2606 21.9114 56.873C20.2573 54.3763 20.2386 54.2218 20.0399 41.7697C19.9122 33.7687 20.0941 28.2414 20.5394 26.586ZM59.4763 27.1877L57.4417 25.1517L55.407 23.1158L43.1175 22.9813C36.3583 22.9072 30.2674 23.0866 29.5823 23.3799C28.8973 23.6739 27.6361 24.6678 26.7798 25.5889L25.2228 27.2643V40.2806V53.2976L27.2587 55.3335L29.2946 57.3694H42.3496H55.4045L57.4404 55.3335L59.4763 53.2976V40.2426V27.1877ZM55.8953 29.8968C53.7373 31.2557 51.3072 28.1935 52.9619 26.1999C53.9235 25.0409 55.6873 25.0409 56.6489 26.1999C57.6173 27.3664 57.2791 29.0255 55.8953 29.8968ZM30.4854 36.6223C31.3423 33.4392 35.1538 29.3618 38.1214 28.4538C41.3867 27.4542 46.5198 28.1187 49.1909 29.8868C52.904 32.3437 54.494 35.4484 54.494 40.2426C54.494 45.0991 52.9009 48.1434 49.0134 50.7161C45.5389 53.0155 39.4567 53.1051 35.9242 50.9092C31.2097 47.9783 28.9944 42.1589 30.4854 36.6223ZM49.5117 40.2426C49.5117 37.6188 49.2208 36.8621 47.5854 35.226C45.5289 33.1696 41.8756 32.3089 39.547 33.3315C36.775 34.5491 35.1875 37.0795 35.1875 40.2806C35.1875 42.897 35.4777 43.6231 37.2234 45.3688C38.9759 47.1214 39.6902 47.4047 42.3496 47.4047C45.0089 47.4047 45.7232 47.1214 47.4758 45.3688C49.2283 43.6163 49.5117 42.9019 49.5117 40.2426Z" fill="#EDB8B8"/>
</svg>
