<svg width="85" height="85" viewBox="0 0 85 85" fill="none" xmlns="http://www.w3.org/2000/svg">
<path fill-rule="evenodd" clip-rule="evenodd" d="M42.3413 0C18.9568 0 0 18.9568 0 42.3413C0 65.7257 18.9568 84.6826 42.3413 84.6826C65.7257 84.6826 84.6826 65.7257 84.6826 42.3413C84.6826 18.9568 65.7257 0 42.3413 0ZM43.0443 29.6012C39.0456 31.2643 31.054 34.7067 19.0692 39.9283C17.1231 40.7022 16.1036 41.4593 16.0108 42.1996C15.854 43.4507 17.4207 43.9434 19.5543 44.6142C19.8445 44.7055 20.1452 44.8001 20.4535 44.9003C22.5525 45.5826 25.3761 46.3808 26.844 46.4125C28.1755 46.4413 29.6616 45.8924 31.3023 44.7657C42.5 37.207 48.2803 33.3864 48.6433 33.304C48.8993 33.2459 49.2541 33.1729 49.4944 33.3865C49.7348 33.6002 49.7112 34.0048 49.6857 34.1134C49.5305 34.775 43.3804 40.4928 40.1977 43.4517C39.2055 44.3741 38.5017 45.0284 38.3578 45.1779C38.0355 45.5126 37.7071 45.8293 37.3914 46.1336C35.4413 48.0135 33.9789 49.4232 37.4723 51.7253C39.1511 52.8316 40.4945 53.7465 41.8347 54.6591C43.2983 55.6559 44.7582 56.65 46.647 57.8882C47.1282 58.2036 47.5878 58.5312 48.0354 58.8504C49.7387 60.0647 51.269 61.1556 53.1596 60.9817C54.2581 60.8806 55.3928 59.8476 55.9691 56.7668C57.3311 49.486 60.0081 33.7107 60.6268 27.21C60.681 26.6405 60.6128 25.9116 60.5581 25.5916C60.5033 25.2716 60.3889 24.8157 59.973 24.4783C59.4804 24.0786 58.72 23.9943 58.3799 24.0003C56.8337 24.0275 54.4613 24.8524 43.0443 29.6012Z" fill="#EDB8B8"/>
</svg>
