<svg width="85" height="85" viewBox="0 0 85 85" fill="none" xmlns="http://www.w3.org/2000/svg">
<path fill-rule="evenodd" clip-rule="evenodd" d="M42.3413 0C18.9568 0 0 18.9568 0 42.3413C0 65.7257 18.9568 84.6826 42.3413 84.6826C65.7257 84.6826 84.6826 65.7257 84.6826 42.3413C84.6826 18.9568 65.7257 0 42.3413 0ZM36.4321 26V50.6876C32.2303 49.1683 22.6261 43.851 22.0258 26H12.0215C11.4212 44.9904 23.4264 62.8414 46.0363 61.3222V48.4087C49.6379 48.6619 57.8014 51.5991 61.6431 61.3222H72.0476C72.0476 55.6251 63.644 45.5601 56.841 43.4712C60.9094 41.4456 68.8462 34.7356 70.0468 26H60.0424C58.5751 30.1779 53.7197 38.7616 46.0363 39.6731V26H36.4321Z" fill="#EDB8B8"/>
</svg>
